<svg
    xmlns="http://www.w3.org/2000/svg"
    viewBox="0 0 24 24"
    id="vector">
    <path
        id="path"
        d="M 12 4 C 10.397 4 9.098 5.3 9.098 6.903 C 9.098 8.506 10.397 9.805 12 9.805 C 13.603 9.805 14.902 8.506 14.902 6.903 C 14.902 5.3 13.603 4 12 4 Z M 7.098 6.903 C 7.098 4.195 9.293 2.001 12 2.001 C 14.707 2.001 16.902 4.195 16.902 6.903 C 16.902 9.61 14.707 11.805 12 11.805 C 9.293 11.805 7.098 9.61 7.098 6.903 Z"
        fill="#86bd46"
        fill-rule="evenodd"/>
    <path
        id="path_1"
        d="M 9.518 15.39 C 6.47 15.39 4 17.861 4 20.908 L 4 20.999 C 4 21.552 3.552 21.999 3 21.999 C 2.448 21.999 2 21.552 2 20.999 L 2 20.908 C 2 16.756 5.366 13.39 9.518 13.39 L 14.482 13.39 C 18.634 13.39 22 16.756 22 20.908 L 22 20.999 C 22 21.552 21.552 21.999 21 21.999 C 20.448 21.999 20 21.552 20 20.999 L 20 20.908 C 20 17.861 17.53 15.39 14.482 15.39 L 9.518 15.39 Z"
        fill="#86bd46"
        fill-rule="evenodd"/>
</svg>
