<svg
    xmlns="http://www.w3.org/2000/svg"
    viewBox="0 0 24 24"
    id="vector">
    <path
        id="path"
        d="M 9.188 21 C 9.498 21 9.75 20.748 9.75 20.438 C 9.75 20.127 9.498 19.875 9.188 19.875 C 8.877 19.875 8.625 20.127 8.625 20.438 C 8.625 20.748 8.877 21 9.188 21 Z"
        fill="#9b9b9b"
        stroke="#9b9b9b"
        stroke-width="2"
        stroke-linecap="round"
        stroke-linejoin="round"/>
    <path
        id="path_1"
        d="M 17.063 21 C 17.373 21 17.625 20.748 17.625 20.438 C 17.625 20.127 17.373 19.875 17.063 19.875 C 16.752 19.875 16.5 20.127 16.5 20.438 C 16.5 20.748 16.752 21 17.063 21 Z"
        fill="#9b9b9b"
        stroke="#9b9b9b"
        stroke-width="2"
        stroke-linecap="round"
        stroke-linejoin="round"/>
    <path
        id="path_2"
        d="M 3 3 L 5.25 3 L 7.5 16.5 L 18.75 16.5 L 21 6.375 L 6.375 6.375"
        fill="#ffffff"
        stroke="#9b9b9b"
        stroke-width="2"
        stroke-linecap="round"
        stroke-linejoin="round"/>
</svg>
