<svg
    xmlns="http://www.w3.org/2000/svg"
    viewBox="0 0 250 280"
    id="vector">
    <path
        id="path"
        d="M 174.776 66.893 C 173.003 50.702 164.033 8.961 144.231 10.021 C 124.114 11.066 116.423 51.244 115.16 66.642 L 105.178 65.832 C 105.396 63.217 110.78 1.748 143.705 0.031 C 177.083 -1.628 184.426 63.048 184.725 65.808 L 174.776 66.893 Z"
        fill="#495661"
        fill-opacity="0.5"
        stroke-opacity="0.5"/>
    <path
        id="path_1"
        d="M 239.727 127.464 C 221.705 119.991 202.083 117.205 182.693 119.369 L 165.693 48.848 L 223.867 70.285 L 239.727 127.464 Z"
        fill="#86bd46"/>
    <path
        id="path_2"
        d="M 87.708 218.92 C 87.759 240.87 95.382 262.13 109.291 279.111 L 0 278.172 L 52.986 46.282 L 165.701 48.888 L 182.701 119.409 C 129.198 125.303 87.708 167.57 87.708 218.92 Z"
        fill="#46a4a0"/>
    <path
        id="path_3"
        d="M 87.708 69.702 C 87.481 75.134 82.616 79.336 76.835 79.093 C 71.055 78.85 66.562 74.252 66.789 68.803 C 67.015 63.355 71.881 59.17 77.661 59.413 C 83.441 59.655 87.942 64.27 87.708 69.702 Z"
        fill="#495661"/>
    <path
        id="path_4"
        d="M 154.731 70.188 C 154.504 75.612 149.631 79.822 143.851 79.579 C 138.07 79.336 133.577 74.721 133.804 69.305 C 134.031 63.889 138.904 59.672 144.676 59.915 C 150.448 60.157 154.958 64.756 154.731 70.188 Z"
        fill="#495661"/>
    <path
        id="path_5"
        d="M 142.288 69.993 C 140.88 54.612 132.849 14.943 112.788 14.943 L 112.456 14.943 C 91.909 15.373 83.118 53.422 81.466 68.075 L 71.517 66.958 C 71.8 64.448 78.802 5.65 112.237 4.921 L 112.828 4.921 C 146.069 4.921 152.019 66.448 152.262 69.103 L 142.288 69.993 Z"
        fill="#495661"/>
    <path
        id="path_6"
        d="M 177.933 139.915 C 178.523 140.022 179.123 140.066 179.722 140.045 C 188.768 140.82 197.532 143.584 205.385 148.14 C 211.276 151.5 216.786 155.487 221.819 160.033 C 224.904 162.777 227.81 165.7 230.635 168.695 C 230.813 168.881 230.967 169.084 231.137 169.278 L 231.064 169.359 C 228.539 167.081 225.918 164.922 223.204 162.882 C 216.566 157.871 209.312 153.733 201.621 150.569 C 196.968 148.662 192.119 147.272 187.162 146.424 C 183.649 145.826 180.086 145.581 176.524 145.695 C 170.138 145.898 163.852 147.341 158.018 149.946 C 152.873 152.271 148.099 155.342 143.851 159.061 C 136.961 165.011 131.424 172.095 126.591 179.77 C 125.401 181.648 124.284 183.575 123.183 185.51 C 123.118 185.631 123.045 185.744 122.932 185.922 C 122.535 184.813 122.162 183.769 121.798 182.725 C 121.151 180.903 120.495 179.074 119.863 177.244 C 119.842 177.12 119.771 177.009 119.668 176.936 C 119.565 176.863 119.437 176.834 119.313 176.855 C 118.617 176.855 117.92 176.855 117.216 176.855 C 116.973 176.855 116.868 176.791 116.876 176.523 C 116.876 175.771 116.876 175.01 116.876 174.249 C 116.889 174.039 116.971 173.839 117.111 173.682 C 118.779 171.423 120.576 169.27 122.454 167.205 C 126.275 162.928 130.457 158.987 134.954 155.426 C 141.979 149.769 149.964 145.42 158.528 142.587 C 162.115 141.432 165.809 140.64 169.554 140.223 C 170.72 140.101 171.878 139.988 173.043 139.948 C 173.157 139.948 173.286 139.988 173.383 139.883 L 177.933 139.915 Z"
        fill="#46a4a0"/>
    <path
        id="path_7"
        d="M 150.246 198.835 L 146.312 205.465 C 141.551 213.496 136.794 221.524 132.039 229.55 C 131.149 231.038 129.934 232.304 128.484 233.255 C 127.034 234.206 125.388 234.816 123.668 235.038 C 122.558 235.201 121.425 235.095 120.364 234.729 C 119.303 234.362 118.346 233.747 117.572 232.934 C 116.426 231.843 115.471 230.568 114.747 229.161 C 114.414 228.365 114.162 227.538 113.994 226.692 C 112.073 219.972 110.159 213.25 108.254 206.526 C 105.847 198.042 103.437 189.56 101.025 181.081 C 100.936 180.766 100.96 180.66 101.324 180.66 C 106.489 180.66 111.66 180.66 116.836 180.66 C 117.208 180.66 117.248 180.863 117.313 181.114 L 122.065 199.199 C 123.226 203.609 124.386 208.026 125.546 212.452 C 125.546 212.557 125.611 212.654 125.644 212.759 C 125.822 212.759 125.838 212.589 125.895 212.484 C 130.844 203.611 135.79 194.733 140.734 185.85 C 141.439 184.465 142.438 183.251 143.662 182.293 C 144.886 181.335 146.304 180.656 147.817 180.304 C 149.936 179.718 152.175 179.718 154.294 180.304 C 155.478 180.682 156.567 181.312 157.485 182.151 C 158.403 182.989 159.129 184.016 159.613 185.161 C 160.56 187.202 161.637 189.161 162.681 191.144 C 166.324 198.074 169.98 204.996 173.65 211.909 L 174.339 213.213 C 174.501 212.686 174.638 212.257 174.76 211.82 L 181.171 189.768 C 181.374 189.055 181.398 188.311 181.617 187.598 C 182.098 185.968 182.987 184.488 184.2 183.297 C 185.412 182.105 186.908 181.243 188.546 180.79 C 190.113 180.267 191.752 179.994 193.404 179.98 C 211.214 179.867 229.097 179.98 246.94 179.932 C 247.069 179.932 247.239 179.859 247.312 180.005 C 247.385 180.15 247.231 180.215 247.167 180.312 C 243.977 185.018 240.79 189.725 237.606 194.431 C 237.411 194.722 237.185 194.714 236.909 194.714 L 196.067 194.714 C 195.355 194.714 195.355 194.714 195.152 195.378 C 192.165 205.093 189.202 214.807 186.182 224.522 C 185.323 227.515 183.811 230.28 181.754 232.618 C 180.912 233.578 179.867 234.338 178.694 234.844 C 177.784 235.205 176.807 235.366 175.829 235.316 C 174.851 235.266 173.895 235.005 173.027 234.553 C 171.464 233.77 170.043 232.73 168.825 231.476 C 168.687 231.315 168.567 231.139 168.469 230.95 C 163.79 223.405 159.208 215.811 154.917 208.031 C 153.298 205.141 151.768 202.227 150.432 199.207 C 150.384 199.078 150.327 198.989 150.246 198.835 Z"
        fill="#46a4a0"/>
    <path
        id="path_8"
        d="M 250 216.702 L 250 219.381 C 249.809 223.144 248.492 226.763 246.219 229.768 C 244.244 232.244 241.456 233.941 238.35 234.561 C 237.036 234.864 235.692 235.019 234.343 235.022 C 217.785 235.022 201.227 235.022 184.669 235.022 L 184.15 235.022 C 184.442 234.625 184.701 234.294 184.96 233.945 C 187.105 230.67 188.59 227.007 189.332 223.162 C 189.453 222.587 189.55 222.004 189.639 221.422 C 189.68 221.195 189.753 221.057 190.012 221.106 C 190.117 221.114 190.222 221.114 190.327 221.106 L 230.133 221.106 C 230.597 221.133 231.062 221.067 231.5 220.912 C 231.938 220.757 232.34 220.516 232.684 220.203 C 233.027 219.89 233.304 219.511 233.499 219.089 C 233.693 218.667 233.802 218.211 233.817 217.746 C 233.926 217.026 233.91 216.292 233.768 215.577 C 233.668 214.992 233.358 214.464 232.895 214.093 C 232.433 213.722 231.851 213.532 231.259 213.561 C 228.166 213.512 225.074 213.48 221.981 213.447 L 210.89 213.342 L 203.386 213.253 L 193.792 213.156 C 192.651 213.156 192.659 213.156 192.902 212.047 C 193.566 209.127 194.219 206.205 194.861 203.279 C 194.934 202.947 195.071 202.875 195.379 202.875 C 208.826 202.875 222.273 202.875 235.727 202.875 C 237.777 202.963 239.784 203.49 241.613 204.421 C 243.674 205.277 245.491 206.628 246.903 208.356 C 248.315 210.083 249.279 212.132 249.709 214.322 C 249.866 215.107 249.963 215.902 250 216.702 Z"
        fill="#86bd46"/>
    <path
        id="path_9"
        d="M 230.562 242.859 C 229.608 244.188 228.583 245.466 227.494 246.688 C 222.76 252.206 217.397 257.151 211.514 261.422 C 205.832 265.606 199.555 268.916 192.894 271.242 C 189.013 272.572 184.998 273.473 180.92 273.93 C 177.845 274.268 174.745 274.328 171.659 274.108 C 166.006 273.691 160.448 272.419 155.176 270.335 C 148.625 267.712 142.472 264.186 136.896 259.859 C 131.631 255.815 126.728 251.318 122.243 246.421 C 120.025 244.033 117.896 241.563 115.816 239.054 L 115.686 238.884 C 115.751 238.738 115.872 238.795 115.969 238.795 L 126.704 238.795 C 126.823 238.791 126.94 238.819 127.044 238.876 C 127.148 238.933 127.234 239.017 127.295 239.119 C 130.941 244.091 135.17 248.608 139.892 252.573 C 143.639 255.762 147.709 258.551 152.035 260.896 C 157.343 263.815 163.082 265.87 169.036 266.984 C 171.825 267.472 174.648 267.742 177.48 267.793 C 183.268 267.883 189.035 267.064 194.569 265.364 C 200.799 263.435 206.742 260.683 212.242 257.18 C 217.373 253.944 222.224 250.283 226.741 246.235 C 227.907 245.198 229.065 244.146 230.19 243.069 C 230.287 242.972 230.401 242.899 230.506 242.81 L 230.562 242.859 Z"
        fill="#46a4a0"/>
    <path
        id="path_10"
        d="M 135.196 172.743 C 136.1 171.414 137.095 170.151 138.176 168.962 C 143.419 162.887 149.799 157.896 156.957 154.269 C 165.37 150.004 174.835 148.261 184.215 149.249 C 191.221 150.027 198.041 151.999 204.381 155.078 C 210.908 158.223 217.061 162.09 222.726 166.606 C 225.705 168.93 228.563 171.391 231.34 173.949 L 231.769 174.362 L 231.234 174.362 C 228.506 174.362 225.77 174.362 223.042 174.362 C 222.901 174.364 222.762 174.338 222.632 174.283 C 222.502 174.229 222.385 174.148 222.289 174.046 C 213.743 165.888 203.374 159.885 192.044 156.535 C 187.869 155.32 183.564 154.61 179.22 154.422 C 175.311 154.254 171.395 154.526 167.546 155.232 C 159.558 156.783 151.986 159.999 145.324 164.671 C 141.862 167.048 138.593 169.693 135.544 172.581 L 135.269 172.816 L 135.196 172.743 Z"
        fill="#495661"/>
    <path
        id="path_11"
        d="M 136.637 246.17 C 138.143 247.133 139.617 248.137 141.155 249.044 C 148.287 253.326 156.09 256.378 164.235 258.07 C 168.424 258.922 172.697 259.291 176.97 259.171 C 187.234 258.848 197.179 255.521 205.571 249.602 C 210.053 246.488 214.16 242.866 217.812 238.811 C 217.899 238.7 218.012 238.612 218.14 238.553 C 218.268 238.494 218.408 238.466 218.549 238.471 C 221.479 238.471 224.402 238.471 227.332 238.471 C 227.389 238.722 227.203 238.827 227.106 238.957 C 224.201 242.807 220.893 246.335 217.237 249.481 C 212.8 253.392 207.848 256.677 202.519 259.244 C 198.17 261.342 193.553 262.832 188.797 263.672 C 186.229 264.117 183.631 264.363 181.026 264.409 C 175.586 264.481 170.167 263.722 164.956 262.159 C 159.132 260.393 153.559 257.884 148.376 254.694 C 144.277 252.189 140.359 249.397 136.654 246.34 L 136.565 246.243 L 136.637 246.17 Z"
        fill="#495661"/>
</svg>
